<svg viewBox="0 0 200 187" xmlns="http://www.w3.org/2000/svg" xmlns:xlink="http://www.w3.org/1999/xlink">
    <mask id="mask0" mask-type="alpha">
        <path d="M190.312 36.4879C206.582 62.1187 201.309 102.826 182.328 134.186C163.346 165.547 
        130.807 187.559 100.226 186.353C69.6454 185.297 41.0228 161.023 21.7403 129.362C2.45775 
        97.8511 -7.48481 59.1033 6.67581 34.5279C20.9871 10.1032 59.7028 -0.149132 97.9666 
        0.00163737C136.23 0.303176 174.193 10.857 190.312 36.4879Z"/>
    </mask>
    <g mask="url(#mask0)">
        <path d="M190.312 36.4879C206.582 62.1187 201.309 102.826 182.328 134.186C163.346 
        165.547 130.807 187.559 100.226 186.353C69.6454 185.297 41.0228 161.023 21.7403 
        129.362C2.45775 97.8511 -7.48481 59.1033 6.67581 34.5279C20.9871 10.1032 59.7028 
        -0.149132 97.9666 0.00163737C136.23 0.303176 174.193 10.857 190.312 36.4879Z"/>
        <image href=""/>
    </g>
</svg>

<svg viewBox="0 0 200 200" xmlns="http://www.w3.org/2000/svg">
  <path fill="#740074" d="M48.3,-10.3C56.7,10.2,53.6,39.8,38,50.7C22.5,61.6,-5.4,53.7,-24,38.9C-42.7,24,-52,2,-46.4,-14.5C-40.9,-31.1,-20.4,-42.3,-0.2,-42.2C19.9,-42.1,39.9,-30.8,48.3,-10.3Z" transform="translate(100 100)" />
  <mask id="mask0" mask-type="alpha">
   <path d="M48.3,-10.3C56.7,10.2,53.6,39.8,38,50.7C22.5,61.6,-5.4,53.7,-24,38.9C-42.7,24,-52,2,-46.4,-14.5C-40.9,-31.1,-20.4,-42.3,-0.2,-42.2C19.9,-42.1,39.9,-30.8,48.3,-10.3Z"/>
   </mask>
   <g mask="url(#mask0)">
        <path d="M48.3,-10.3C56.7,10.2,53.6,39.8,38,50.7C22.5,61.6,-5.4,53.7,-24,38.9C-42.7,24,-52,2,-46.4,-14.5C-40.9,-31.1,-20.4,-42.3,-0.2,-42.2C19.9,-42.1,39.9,-30.8,48.3,-10.3Z"/>
        <image href=""/>
    </g>
</svg>
